<svg width="179" height="91" viewBox="0 0 179 91" fill="none" xmlns="http://www.w3.org/2000/svg">
<g clip-path="url(#clip0_59_2)">
<path d="M39.9212 89.8408L33.4005 85.0589L26.8073 86.508L19.7795 85.0589L19.7795 79.4076L16.9538 76.3646L17.5334 72.2348L15.3599 68.1051L32.3862 49.4849L26.4452 45.9348L11.3027 32.4587L1.08679 17.6785L2.68354 12.1381C2.68354 -4.78178 25.8655 0.362332 30.5749 7.68001L33.1831 12.1381L39.2691 15.5773L40.3559 20.4316L46.5143 26.9523L54.629 32.4587L66.2938 32.4587L60.2802 77.1616L51.7309 84.5517L44.1959 89.1162L39.9212 89.8408Z" fill="white"/>
<path d="M38.9794 19.8519L45.0653 25.793L35.6466 29.9228L29.0534 37.965L27.7493 36.6608L26.59 46.0072L20.2142 41.4427L14.7803 35.7914L12.2445 31.5167L13.8946 26.6859L16.2294 23.4745L24.5775 19.8519L32.2414 16.9538L38.9794 19.8519Z" fill="#0C45BE"/>
<path d="M104.942 62.5146L108.637 55.3222L112.072 40.981L113.264 34.8364L124.545 33.6903L129.038 32.8934L130.052 29.1258L140.268 25.9379L153.671 28.3289L155.7 29.9228L170.335 13.5486C186.637 15.7222 170.335 25.793 158.81 36.8782L159.322 42.7468L157.946 46.2969L155.265 48.3256L148.672 51.441L162.148 67.5254L160.844 70.5684L159.975 77.3065L157.946 77.8136L158.381 83.32L156.487 86.0008L145.846 85.1313L141.354 87.957L135.268 89.6959L120.669 80.6225L112.072 76.2198L101.506 79.52L104.942 62.5146Z" fill="white"/>
<path d="M91.7743 81.3458C71.2587 82.5859 51.5159 71.1244 52.9654 44.1618C52.2188 25.872 68.1054 34.9602 88.621 33.7201C109.143 32.4799 128.045 26.9257 126.886 46.1643C126.886 64.8308 112.029 78.4194 91.7743 81.3458Z" fill="white"/>
<path d="M19.6588 62.0191C19.5235 62.193 19.5042 62.3089 19.6201 62.3089C19.7167 62.3089 19.852 62.1737 19.9293 62.0191C19.9872 61.8645 20.0065 61.7293 19.9679 61.7293C19.9293 61.7293 19.794 61.8645 19.6588 62.0191Z" fill="black"/>
<path d="M124.087 78.8473C123.178 79.6394 122.56 79.9292 121.826 79.9292C121.517 79.9292 121.285 80.0065 121.285 80.1031C121.285 80.335 122.831 82.0159 123.043 82.0159C123.14 82.0159 123.546 81.5135 123.951 80.8953C124.357 80.2963 124.879 79.5042 125.13 79.1757C125.574 78.5961 125.555 78.1517 125.091 78.1517C124.956 78.1711 124.512 78.4802 124.087 78.8473Z" fill="black"/>
<path d="M91.7048 66.3405C71.1893 67.1697 51.4465 59.5063 52.8959 41.4785L55.2087 33.2555L73.684 32.3861L78.2485 47.8909L89.4786 50.8614L100.998 47.2388L103.534 32.3861L119.474 32.9657L123.604 34.4148L126.816 42.8174C126.816 55.2982 111.96 64.3838 91.7048 66.3405Z" fill="#FF0000"/>
<path d="M13.5776 0.153708C11.2011 0.385556 9.44295 0.829925 7.87798 1.58343C5.23106 2.89723 3.45357 4.98385 2.77734 7.59213C2.62278 8.19107 2.15909 9.17643 1.73403 9.79468C0.0531408 12.2677 -0.371912 16.2091 0.652079 20.0153C1.11577 21.8121 1.27034 22.1985 2.19773 23.9953C3.9559 27.3958 6.52554 30.2745 10.6408 33.4238C11.7807 34.2932 12.7081 35.1047 12.7081 35.2013C12.7081 35.2786 13.5389 36.2253 14.5629 37.2879C18.0406 40.9395 23.8561 45.4605 28.6863 48.2813C29.4011 48.7064 30.1739 49.2087 30.3865 49.3633C30.7729 49.6724 30.7729 49.6724 30.2705 50.1168C30.0001 50.3486 28.8601 51.3146 27.7589 52.2614C21.9241 57.2461 16.379 63.5446 15.1039 66.5972C14.7368 67.4667 14.6981 69.3987 15.0073 70.2102C15.1232 70.5193 15.5483 71.1569 15.9153 71.6206L16.6302 72.4707L16.3984 73.6299C15.9926 75.6586 16.4563 76.9917 18.0213 78.4408L19.1226 79.4261L18.8907 81.165C18.6202 83.0584 18.6975 83.8698 19.1998 84.9325C19.5669 85.7053 20.7069 86.4781 21.8274 86.6713C22.523 86.8066 30.6956 86.4781 31.9514 86.2849C32.5311 86.1883 32.5697 86.2076 32.6663 86.9805C32.8788 88.5648 34.7529 90.0331 37.0521 90.4195C37.6317 90.5161 38.7136 90.7093 39.4285 90.8253C40.9935 91.1151 42.5584 90.8639 44.1041 90.0911C47.0022 88.642 56.3533 82.4015 60.3141 79.2522L61.6665 78.1896L62.5359 78.7112C64.2941 79.7546 68.1003 81.5514 69.6073 82.0344C70.4574 82.3049 72.2349 82.7106 73.5487 82.9425C75.616 83.3096 76.1183 83.3289 77.2389 83.1357C78.3595 82.9425 78.6686 82.9618 79.7699 83.2902C84.4068 84.72 91.4782 84.8359 96.8493 83.5414C99.1485 83.0004 99.3417 82.9811 101.1 83.1936C102.472 83.3675 106.22 82.7686 108.48 82.0344C109.871 81.5707 113.426 79.9284 115.165 78.9238L116.073 78.4021L117.464 79.3488C118.237 79.8705 120.131 81.2036 121.676 82.3049C126.39 85.686 132.67 89.6467 134.428 90.3616C135.8 90.9219 136.978 90.9412 139.857 90.5355C143.045 90.0718 144.938 88.8352 145.228 87.0191C145.344 86.3815 145.421 86.2849 145.827 86.3236C146.097 86.3622 148.416 86.4781 151.005 86.5747C155.062 86.7679 155.854 86.7486 156.724 86.4974C158.868 85.8792 159.545 84.0824 158.946 80.624L158.714 79.3681L159.274 78.9624C160.781 77.8805 161.477 76.6246 161.477 75.0403C161.477 74.4221 161.399 73.6299 161.283 73.2628C161.11 72.6639 161.168 72.548 161.96 71.582C163.042 70.2295 163.389 68.9157 163.042 67.3507C162.752 66.0756 160.916 63.1968 158.733 60.5885C157.149 58.6758 152.396 54.0002 150.522 52.4739C149.865 51.9329 149.324 51.4499 149.324 51.3533C149.305 51.276 149.595 51.218 149.962 51.218C151.102 51.218 153.092 50.4839 154.27 49.6144C154.888 49.1507 155.874 48.4745 156.473 48.0881C158.849 46.5618 159.719 44.6297 160.086 39.9928L160.221 38.138L165.225 32.8442C167.968 29.9268 170.403 27.2605 170.615 26.9127C170.809 26.565 171.234 26.1592 171.543 26.0047C172.335 25.5796 177.59 20.3244 177.996 19.5323C178.517 18.5469 178.498 16.5762 177.957 15.5715C177.242 14.2384 175.755 13.0405 174.132 12.4996C173.282 12.2291 173.03 12.2291 172.18 12.4416C170.982 12.7507 170.113 13.4656 167.563 16.2091C166.5 17.349 165.109 18.7208 164.471 19.2231C163.505 20.0153 161.245 22.3531 156.531 27.4344L155.738 28.2845L153.806 27.6083C145.189 24.4977 135.548 24.6909 130.467 28.072C128.69 29.2505 127.859 30.6609 127.859 32.5157C127.859 32.9214 127.82 33.2499 127.782 33.2499C127.743 33.2499 126.758 33.0374 125.598 32.7669C121.56 31.8588 119.667 31.6463 116.073 31.6656C114.219 31.6849 111.977 31.8202 111.108 31.9554L109.524 32.2066L108.789 31.4724C108.306 30.9701 107.727 30.6223 107.07 30.4291C106.22 30.1972 103.071 29.2505 102.781 28.5743C102.22 27.3185 100.741 23.2273 100.346 22.9134C96.6449 19.966 93.8353 19.1459 89.3143 19.1459C84.3102 19.1459 83.1752 19.7641 79.4028 22.4304C77.664 23.9374 76.9385 25.4444 76.1271 27.0866C75.6827 27.9754 74.8577 30.4291 74.0462 30.6416C73.428 30.8155 69.7812 31.0087 69.2595 31.5497L68.5253 32.3225L67.424 32.11C65.7238 31.7815 60.4107 31.5497 57.7831 31.6849C56.4693 31.7429 55.1555 31.7429 54.827 31.6849C54.4986 31.6076 53.4166 30.9121 52.4119 30.1393C50.0162 28.2652 48.9729 27.5503 47.6784 26.8741C46.9829 26.5263 46.21 25.8694 45.4565 25.0193C44.8189 24.2851 43.6018 22.952 42.7323 22.0439C41.1674 20.4017 41.1674 20.4017 41.0321 19.1459C40.7423 16.4603 38.9841 14.3737 35.4871 12.5769L33.5744 11.5915L32.1253 9.36963C31.2945 8.09447 30.058 6.52951 29.2466 5.71804C25.1699 1.6414 19.451 -0.387268 13.5776 0.153708ZM17.9247 1.56411C21.8854 2.04713 25.1313 3.59278 28.0294 6.37494C30.5797 8.82866 32.2219 11.5529 32.9948 14.6055C33.2073 15.4556 33.3812 16.2478 33.3812 16.3637C33.3812 16.4989 32.7822 16.6342 31.9128 16.7115C30.657 16.8274 29.0534 17.2138 27.9328 17.6968C27.6236 17.8127 27.585 17.6775 27.585 16.1318C27.585 13.8713 26.8122 10.5868 25.8848 8.90594C24.1652 5.77601 20.3591 3.68938 16.3404 3.68938C13.1718 3.68938 10.2351 5.40891 9.05654 7.93991C7.8973 10.4516 8.88265 15.0692 11.3557 18.7788C11.8194 19.455 12.9593 20.7688 13.906 21.6962L15.6062 23.3771L14.6788 24.2658C14.1572 24.7488 13.4423 25.6569 13.1139 26.2945L12.4956 27.4537L11.6455 26.8741C9.55887 25.4444 6.87331 21.7735 5.52087 18.5083C4.34231 15.7261 4.11047 14.4123 4.11047 10.838C4.12979 7.93991 4.16843 7.57281 4.55484 6.68407C6.37097 2.72335 11.4523 0.791289 17.9247 1.56411ZM18.1179 6.02717C18.1179 6.20105 17.7894 6.95456 17.6156 7.14776C17.5576 7.20573 15.6642 6.60679 15.4323 6.45222C15.3937 6.4329 15.413 6.27833 15.471 6.10445C15.5676 5.89192 15.896 5.81464 16.8621 5.81464C17.6156 5.81464 18.1179 5.89192 18.1179 6.02717ZM14.447 6.08513C14.447 6.1431 14.3697 6.2397 14.2538 6.29766C14.1572 6.35562 14.0606 6.31698 14.0606 6.22038C14.0606 6.10446 14.1572 6.00785 14.2538 6.00785C14.3697 6.00785 14.447 6.04649 14.447 6.08513ZM20.7648 6.91592C21.016 7.08981 21.2092 7.24437 21.2092 7.28301C21.2092 7.34097 20.4364 8.90594 20.3398 9.0605C20.2818 9.13779 18.3111 7.90127 18.3111 7.78535C18.3111 7.74671 18.5043 7.39893 18.7168 7.03184C19.0839 6.45222 19.1998 6.39427 19.7408 6.51019C20.0693 6.58747 20.533 6.76135 20.7648 6.91592ZM14.0606 6.85795C14.0606 7.01252 13.8867 7.5535 13.6742 8.03651C13.3071 8.90594 13.2491 8.94458 12.6888 8.82866C12.341 8.7707 11.8387 8.71273 11.5296 8.71273C10.7374 8.71273 10.8147 8.307 11.8387 7.37962C12.5149 6.76136 12.8434 6.58747 13.3844 6.58747C13.848 6.58747 14.0606 6.68407 14.0606 6.85795ZM16.2824 7.78535C17.1132 8.19108 17.3644 8.55817 16.978 8.80934C16.8814 8.8673 16.7461 9.17643 16.6688 9.48556C16.5143 10.1811 16.437 10.2004 15.2005 9.56284C14.447 9.19575 14.2538 9.00254 14.3504 8.75137C14.4277 8.57748 14.5822 8.19107 14.6788 7.88194C14.9107 7.24436 15.1425 7.22505 16.2824 7.78535ZM22.6776 8.55817C23.5277 9.5242 23.7595 10.1038 23.6629 10.9732C23.6243 11.4369 23.5277 11.8813 23.4504 11.9393C23.2958 12.0938 21.2092 10.0459 21.2092 9.7174C21.2092 9.25371 21.8274 8.13311 22.0593 8.13311C22.1945 8.13311 22.465 8.32632 22.6776 8.55817ZM19.1226 9.46623L20.0113 10.0265L19.9533 11.2631C19.934 11.9393 19.8954 12.5189 19.8761 12.5382C19.8567 12.5769 19.4317 12.2677 18.91 11.862C18.3884 11.4563 17.8281 11.0312 17.6542 10.9346C17.3451 10.7607 17.3451 10.6834 17.6542 9.81401C17.8281 9.31167 18.0213 8.90594 18.0986 8.90594C18.1759 8.90594 18.6396 9.15711 19.1226 9.46623ZM12.9786 9.60148C13.2105 9.69808 13.1718 12.3836 12.9207 12.5962C12.7274 12.7894 10.6022 12.9439 10.4863 12.7701C10.3317 12.5189 10.3317 9.73673 10.4863 9.48556C10.6215 9.27303 12.341 9.35031 12.9786 9.60148ZM15.3937 10.6834L16.3984 11.0892L16.2631 12.1711C16.2052 12.7701 16.1086 13.311 16.0699 13.369C16.0313 13.427 15.5676 13.3497 15.0459 13.1758L14.0606 12.8667V11.5529C14.0606 10.838 14.1379 10.2584 14.2345 10.2584C14.3117 10.2584 14.8527 10.4516 15.3937 10.6834ZM22.2332 12.1711C23.3151 13.2917 23.3345 13.3497 23.3345 14.4316V15.5329L22.1366 14.4703L20.9194 13.4076L20.8614 12.2098C20.8228 11.5722 20.8807 11.0312 20.9773 11.0312C21.0739 11.0312 21.6342 11.5529 22.2332 12.1711ZM25.0733 12.1325C25.1699 12.5382 25.3245 13.2144 25.3824 13.6395L25.5177 14.4123L24.8994 13.852C24.3005 13.2724 24.1846 12.7701 24.4164 11.8427C24.5903 11.2051 24.8415 11.321 25.0733 12.1325ZM3.62745 15.7261C4.38095 18.856 5.96524 22.0246 8.12915 24.6522C9.9646 26.9127 10.1965 27.2798 10.1965 27.8594C10.1965 28.7868 9.65547 28.5357 7.87798 26.7195C4.67076 23.4737 2.79666 19.4163 2.52618 15.1658C2.46821 14.1032 2.48754 12.886 2.56482 12.4609L2.71938 11.7074L2.97055 12.8667C3.10579 13.5042 3.41492 14.7987 3.62745 15.7261ZM18.3304 12.5382C18.7941 12.8473 19.3158 13.2724 19.509 13.4656C19.7988 13.7941 20.3011 16.2478 20.0886 16.2478C20.0306 16.2478 19.5476 15.9193 19.0066 15.5136C18.4657 15.1079 17.8281 14.6635 17.5962 14.5282C17.2098 14.335 17.1519 14.1418 17.1519 13.1565C17.1519 12.5189 17.2291 11.9972 17.3064 11.9972C17.3837 11.9972 17.8474 12.2484 18.3304 12.5382ZM37.2453 14.9146C38.3852 15.7068 39.1773 16.6535 39.5444 17.6582C39.7763 18.2378 39.8342 19.1459 39.641 19.1459C39.5831 19.1459 38.9455 18.8174 38.25 18.3924C37.5351 17.9866 36.5304 17.4843 35.9894 17.2911C35.4678 17.1172 34.9655 16.9047 34.8882 16.8467C34.8109 16.7694 34.6177 16.1125 34.4631 15.3783C34.2892 14.6248 34.096 13.8327 34.0381 13.5815L33.9028 13.1372L35.0041 13.6202C35.603 13.8907 36.6077 14.4703 37.2453 14.9146ZM13.1718 14.4316C13.2298 14.934 13.2877 15.6682 13.2877 16.0546C13.2877 16.6728 13.2105 16.8081 12.8047 16.9047C12.5342 16.982 12.2251 16.982 12.1092 16.924C11.916 16.7887 11.5296 15.9386 11.0466 14.6442C10.7954 13.9486 10.8147 13.91 11.2204 13.7361C11.4523 13.6395 11.9546 13.5622 12.341 13.5622C13.0366 13.5429 13.0366 13.5622 13.1718 14.4316ZM15.3937 14.2964C16.0699 14.6442 16.1279 14.7601 16.4177 16.0932C16.5916 16.866 16.7075 17.5229 16.6882 17.5422C16.6689 17.5616 14.3697 17.0013 14.3311 16.9433C14.3117 16.9433 14.2345 16.2478 14.1572 15.417C14.0026 13.7168 14.0799 13.6395 15.3937 14.2964ZM173.996 14.6828C174.905 15.1465 175.407 15.7068 176.044 16.9433C176.605 18.0059 176.527 18.7788 175.871 19.0299C175.31 19.2425 173.9 18.7401 173.088 18.0639C171.987 17.1172 171.079 15.5715 171.33 15.0885C171.775 14.2577 172.837 14.0839 173.996 14.6828ZM21.557 14.9919C21.6922 15.0885 22.1945 15.6488 22.6582 16.2091C23.4117 17.0979 23.5277 17.3684 23.5277 18.1025C23.5277 18.8754 23.489 18.9527 23.1606 18.7788C22.9674 18.6628 22.4071 18.2185 21.9241 17.7548C21.1126 16.982 21.0353 16.8467 20.9194 15.7068C20.8035 14.4316 20.8228 14.393 21.557 14.9919ZM25.1506 15.2624C25.5563 15.842 25.6722 16.1898 25.6143 16.8081L25.5563 17.6002L25.0347 17.1558C24.6096 16.8081 24.4744 16.5183 24.3778 15.6102C24.2232 14.2964 24.4164 14.1998 25.1506 15.2624ZM19.0646 16.5955C19.6249 17.0206 20.2045 17.5229 20.3398 17.7355C20.6875 18.2185 20.9387 19.9187 20.6682 19.9187C20.3204 19.9187 18.2918 18.6242 18.0213 18.2378C17.8281 17.9673 17.3451 16.0352 17.3451 15.5329C17.3451 15.3977 18.0599 15.842 19.0646 16.5955ZM13.8094 18.1798C13.9446 18.6822 14.1765 18.6822 14.3117 18.1605C14.4277 17.6968 14.7368 17.7355 16.3018 18.489C17.1905 18.914 17.3451 19.0879 17.7315 20.0346C17.9827 20.6142 18.1179 21.1359 18.0599 21.1938C18.002 21.2518 17.3257 21.1552 16.5336 20.962C15.2391 20.6529 15.0266 20.5369 13.8867 19.4163C13.2298 18.7594 12.7274 18.1219 12.8047 18.0059C13.0173 17.6389 13.7128 17.7741 13.8094 18.1798ZM24.996 18.1992C25.3438 18.5856 25.3438 18.6049 24.9767 18.8754C24.4164 19.2811 24.3005 19.2038 24.3005 18.4696C24.3005 17.6968 24.4744 17.6195 24.996 18.1992ZM35.6224 18.5856C37.2066 19.0686 39.2739 20.5756 41.5538 22.8747C43.0415 24.3817 43.3892 24.8454 43.2347 25.058C43.0994 25.1932 43.0608 25.483 43.1187 25.6762C43.2926 26.1786 42.9449 26.4104 41.6697 26.6616C39.1001 27.1253 36.2213 28.5936 33.9028 30.6223C32.589 31.7622 30.657 34.2352 29.9421 35.7036C29.6523 36.2639 29.3625 36.7276 29.2659 36.7276C29.1693 36.7276 28.7635 36.4571 28.3578 36.148C27.9521 35.8195 27.585 35.5684 27.527 35.5684C27.4691 35.5684 27.1406 36.3219 26.8122 37.2493C26.2712 38.6983 26.1553 39.2779 26.078 41.1713C26.0393 42.4272 26.078 43.7217 26.1939 44.1274C26.3098 44.5138 26.3291 44.8422 26.2712 44.8422C25.6336 44.8422 20.5523 40.8622 17.886 38.2926C15.3164 35.8195 14.5049 34.7955 13.8674 33.1919C13.5003 32.2452 13.4423 31.8395 13.5196 30.2938C13.5776 28.8062 13.6935 28.3231 14.1958 27.2605C15.2198 25.1546 16.379 24.3238 20.9194 22.4497C22.3105 21.8701 24.2232 21.0006 25.1699 20.479C29.7489 18.0446 32.3378 17.5809 35.6224 18.5856ZM22.4457 19.2618L23.0253 19.7641L22.5423 20.1312C22.0013 20.5369 21.8661 20.4403 21.6922 19.4743C21.5376 18.6435 21.6729 18.5856 22.4457 19.2618ZM20.5136 20.904C20.6875 21.0586 19.8761 21.4643 19.3737 21.4643C19.1805 21.4643 18.5043 20.1892 18.5043 19.8028C18.5043 19.6868 20.2045 20.6142 20.5136 20.904ZM17.1712 22.0439C17.2678 22.0439 17.3451 22.1212 17.3451 22.2372C17.3451 22.5463 16.8427 22.469 16.5529 22.1019C16.3211 21.8121 16.3211 21.7928 16.6302 21.9087C16.8234 21.986 17.0746 22.0439 17.1712 22.0439ZM92.8886 22.9134C96.8493 24.3624 97.8009 27.1881 98.5351 30.9943C99.0181 33.6025 98.8829 36.9064 97.7623 39.2635C96.5451 41.8331 94.9752 43.4125 91.9612 44.0501C90.4349 44.3592 87.1504 44.3206 85.9139 43.9535C80.5814 42.3885 79.0357 38.5824 79.4028 33.5397C79.654 29.9074 79.4221 26.2752 82.4168 24.2851C83.8852 23.3191 84.2909 23.1259 86.223 22.6042C88.1744 22.0633 90.9179 22.1985 92.8886 22.9134ZM163.795 22.8941C163.795 23.9953 165.92 25.966 167.524 26.3718L168.393 26.5843L163.757 31.511C161.206 34.2159 158.154 37.4231 156.994 38.6017L154.869 40.7849L153.381 40.8236C151.932 40.8622 150.425 40.8042 150.348 40.727C150.309 40.7076 150.078 40.0314 149.826 39.22L149.363 37.7516L153.729 33.018C156.125 30.4098 159.293 26.9707 160.781 25.3671C162.25 23.7442 163.525 22.4304 163.621 22.4304C163.718 22.4304 163.795 22.6429 163.795 22.8941ZM146.793 27.4924C150.135 28.1106 154.116 29.3858 154.27 29.8881C154.309 30.004 153.748 30.7575 153.014 31.5304L151.662 32.9601L150.734 32.593C145.267 30.4677 141.557 29.9268 137.461 30.6416C135.471 30.9894 134.177 31.4724 132.882 32.3611C131.781 33.1147 130.776 33.5011 130.139 33.4045C129.772 33.3658 129.675 33.2113 129.636 32.6123C129.443 30.1972 133.694 27.7049 139.065 27.0673C141.035 26.8548 144.339 27.0287 146.793 27.4924ZM47.0022 28.5743C47.6398 28.9221 48.6831 29.6756 49.3207 30.2552C50.3833 31.2212 50.4412 31.3372 50.1514 31.627C49.9776 31.8008 49.5525 32.0134 49.2047 32.0907C48.6831 32.2259 48.857 32.2452 49.9969 32.2452C51.6391 32.2066 52.1608 32.3418 53.0109 32.9794C53.3393 33.2306 53.803 33.4431 54.0156 33.4431C54.6531 33.4431 54.5179 33.6556 53.3587 34.5637C51.6778 35.8968 50.4992 37.9641 49.9003 40.669C49.2047 43.7989 50.1514 47.296 52.6051 50.735C53.4939 51.9715 57.1068 55.5845 57.2807 55.3913C57.3387 55.3333 57.1262 54.7924 56.817 54.1741C56.0829 52.7637 55.8896 52.1841 56.1795 52.1841C56.2954 52.1841 57.1455 52.6864 58.0729 53.3047C60.2175 54.7537 60.2368 54.7537 60.2368 54.5219C60.2368 54.4253 59.5219 53.5752 58.6525 52.6284C54.8077 48.4745 53.4166 45.4991 53.4553 41.4611C53.4746 38.6983 54.4406 35.8389 55.851 34.3318L56.4693 33.6749L59.2707 33.5397C61.6858 33.4238 66.1102 33.6363 66.3614 33.9068C66.4001 33.9454 66.2648 34.8535 66.033 35.9355C65.2988 39.5484 65.5113 43.5671 66.6319 46.9868C67.9457 51.0442 71.4427 55.5265 75.3841 58.2121C76.9298 59.2747 80.1177 60.7624 81.8758 61.2648C87.4788 62.8297 94.0285 62.424 99.0905 60.2021C103.554 58.2507 107.901 54.2127 110.065 50.0588C111.726 46.8323 112.267 44.4752 112.286 40.3019C112.286 37.7129 112.228 36.9401 111.861 35.5877C111.63 34.6989 111.475 33.9261 111.514 33.8875C111.552 33.8488 112.364 33.7329 113.33 33.6363C116.247 33.3272 121.599 33.7136 122.217 34.2739C122.41 34.4478 122.913 35.2592 123.357 36.09C124.864 38.9881 125.096 42.6977 123.975 45.9435C123.261 48.0495 121.715 50.3679 119.396 52.8217C117.58 54.7344 117.967 54.773 120.575 52.9183C121.309 52.3966 121.966 52.0102 122.024 52.0682C122.082 52.1454 121.889 52.7057 121.599 53.324C121.29 53.9422 121.077 54.5605 121.135 54.6958C121.174 54.831 121.812 54.4446 122.739 53.6911C126.159 50.9669 128.129 47.4312 128.381 43.6637C128.574 40.6883 127.685 37.7516 125.965 35.6843C125.521 35.1626 125.212 34.6603 125.251 34.583C125.366 34.4284 127.337 34.9115 127.955 35.2399C128.168 35.3558 129.559 35.5104 131.047 35.5877C133.423 35.7229 135.065 35.9934 136.225 36.4378C136.688 36.631 136.65 36.1093 136.167 35.665C135.896 35.4331 135.838 35.2399 135.974 35.0854C136.244 34.7569 138.91 35.2592 140.185 35.8775C141.519 36.5344 143.489 38.3699 144.127 39.5677C145.151 41.4225 145.73 44.7843 145.325 46.3299C145.228 46.697 143.277 47.8369 142.137 48.1847C141.963 48.2427 141.654 48.7064 141.461 49.228C140.997 50.5032 139.2 53.1694 137.828 54.6378C137.075 55.4686 136.321 56.0482 135.51 56.4153C133.829 57.2268 130.158 58.2894 127.511 58.7531C124.69 59.2554 123.802 59.4873 123.802 59.7384C123.802 60.0089 121.927 63.7185 121.232 64.8391C118.121 69.7851 113.658 73.6879 107.901 76.5087C104.481 78.1896 101.467 79.1943 97.4096 80.0057C92.193 81.049 85.4308 81.0297 80.137 79.9864C78.3595 79.6386 74.2056 78.4021 73.085 77.8998C70.0516 76.528 69.2402 76.1416 68.2548 75.562C64.2941 73.2628 60.5459 70.017 58.2661 66.8677C56.7784 64.8197 56.2567 63.9696 55.0975 61.6318L54.0928 59.6032L52.2767 59.0429C49.9775 58.3473 47.4079 57.2847 44.4905 55.8163C40.5298 53.8456 40.5105 53.8263 39.3899 51.5079C38.4238 49.5565 38.1727 48.3972 38.0374 45.5378L37.9215 43.2386L36.2792 42.0214C34.4245 40.6497 34.1926 40.4951 34.0187 40.669C33.7676 40.9008 33.4005 43.4512 33.3812 44.8616C33.3812 45.8662 33.5357 46.8516 33.8449 47.9529C34.1153 48.8416 34.2892 49.5951 34.2699 49.6144C34.2506 49.6531 33.5937 49.228 32.8402 48.687C31.7582 47.9335 31.3139 47.4698 30.9274 46.7163C29.5943 44.0694 29.575 40.2053 30.9081 37.056C32.5697 33.076 36.3179 29.5983 40.24 28.3618C41.6697 27.8981 41.9981 27.8594 44.0075 27.9174C45.6691 27.9561 45.9589 28.014 47.0022 28.5743ZM70.2787 33.9068C71.3655 33.6749 74.1622 32.0327 74.0462 33.9068C73.8337 37.4231 76.7994 47.8185 76.7994 47.8185C79.0454 50.0588 81.5088 50.0588 84.7692 50.735C84.7692 50.735 88.0324 51.31 90.1306 51.1939C92.263 51.0759 95.4921 50.1168 95.4921 50.1168C98.68 49.1507 101.82 48.79 102.447 46.1367C104.186 38.7813 103.563 39.5677 103.389 34.583C103.331 32.6123 106.915 33.5397 107.321 33.4817C107.959 33.3851 108.152 33.9841 108.287 36.2253C108.751 44.4365 104.867 50.5032 97.2744 53.3819C91.8839 55.4299 85.3729 55.3333 80.137 53.1501C75.7899 51.334 72.1383 47.7403 70.6313 43.8376C69.53 40.9588 69.4093 39.3117 69.6266 36.3412C70.0614 34.5637 69.6991 35.037 70.2787 33.9068ZM158.695 41.0168C158.559 42.5431 158.212 43.8569 157.709 44.8422C157.303 45.6151 157.168 45.5185 157.419 44.6297C157.535 44.282 157.613 43.2386 157.613 42.3499C157.613 40.8429 157.651 40.669 158.134 40.1667C158.424 39.8769 158.695 39.6257 158.733 39.6257C158.791 39.6257 158.772 40.2633 158.695 41.0168ZM79.7602 42.6494C80.7842 43.1903 81.5957 44.3882 81.5764 45.3349C81.5571 46.0884 81.2093 46.4362 80.4751 46.4362C78.7749 46.4362 77.2486 43.5381 78.4851 42.688C79.0067 42.3016 79.1033 42.3016 79.7602 42.6494ZM99.786 43.0454C100.887 44.0501 99.1098 46.9289 97.4869 46.7357C97.1584 46.697 96.8493 46.4845 96.6561 46.1367C96.3856 45.6537 96.4049 45.5571 96.9266 44.5524C97.8153 42.8522 98.9166 42.2533 99.786 43.0454ZM150.792 43.9149C150.754 44.2626 150.715 44.0308 150.715 43.3932C150.715 42.7556 150.754 42.4658 150.792 42.7556C150.831 43.0454 150.831 43.5671 150.792 43.9149ZM34.3086 51.8556C37.2646 53.7877 40.3366 55.6425 41.7856 56.4153C44.3359 57.7677 44.278 57.5166 42.6357 59.3327C40.5877 61.5739 40.5684 61.883 42.5971 59.7577C43.5245 58.7724 44.4325 57.9803 44.6064 57.9803C44.761 57.9803 45.3213 58.1928 45.8623 58.4246C46.3839 58.6758 47.2727 59.0815 47.833 59.3327C48.3739 59.5839 48.8376 59.8544 48.8376 59.951C48.8376 60.0476 48.7217 60.376 48.5671 60.6658C48.0455 61.6705 46.693 65.8051 46.8669 65.8631C47.6204 66.1142 50.1708 68.0656 50.9436 68.9737C52.3926 70.7125 52.7984 71.7172 52.7984 73.4367C52.779 75.079 52.5858 75.562 51.3493 76.9531C50.9049 77.4747 50.6151 77.8805 50.6924 77.8805C50.8663 77.8805 52.296 77.069 53.6291 76.1996C54.8657 75.3881 56.0249 74.8858 57.0102 74.7119C57.6865 74.5766 57.8024 74.6346 58.5172 75.3301C59.3867 76.2189 59.4833 76.8372 58.8843 77.7066C58.4979 78.2282 55.3873 81.0104 53.7644 82.2662C52.3347 83.3675 47.7943 86.3236 45.8429 87.4248C41.6117 89.8013 40.8196 89.7047 36.8589 86.3622C35.8542 85.5121 33.3812 83.5414 31.3525 81.9958C27.3338 78.9045 26.5803 78.2862 22.2332 74.6926C17.1712 70.5 16.1472 69.0123 17.0746 67.1962C17.944 65.496 20.417 62.5979 24.1846 58.8497C27.8168 55.2367 32.4345 51.0635 32.8595 51.0442C32.9368 51.0248 33.5937 51.4113 34.3086 51.8556ZM147.237 52.8217C151.411 56.1641 156.724 61.4773 159.39 65.0323C161.206 67.4087 161.438 68.3168 160.704 69.7851C160.066 71.0023 157.014 73.8425 153.13 76.8178C150.309 78.9817 142.465 85.1836 140.804 86.5554C136.978 89.724 136.283 89.782 131.916 87.2896C125.579 83.6766 118.585 78.035 118.585 76.5473C118.585 76.4314 118.913 75.987 119.3 75.5427C119.995 74.7698 120.053 74.7505 121.019 74.8278C121.734 74.8858 122.333 75.1176 123.145 75.62C125.811 77.2815 127.183 78.0737 127.337 78.0737C127.434 78.0737 127.086 77.61 126.584 77.0497C124.883 75.1949 124.536 73.089 125.598 71.0023C126.313 69.5919 128.071 67.7758 129.694 66.7518C130.486 66.2495 131.143 65.7858 131.143 65.7471C131.143 65.496 129.52 60.9363 129.366 60.7431C129.076 60.376 129.327 60.1442 130.235 60.0089C130.68 59.9316 131.143 59.7964 131.24 59.7191C131.472 59.5452 133.829 58.9463 134.273 58.9463C134.447 58.9463 134.756 59.1588 134.95 59.41C136.553 61.4773 139.451 64.4913 139.451 64.0856C139.451 64.0276 138.736 63.1968 137.886 62.1921C137.017 61.2068 136.128 60.1055 135.896 59.7771C135.684 59.4293 135.317 59.0815 135.123 59.0236C134.853 58.927 135.375 58.5792 137.152 57.6711C139.973 56.2028 142.407 54.4446 144.011 52.6864C144.629 52.0102 145.228 51.4306 145.305 51.4306C145.383 51.4113 146.252 52.0488 147.237 52.8217ZM18.7941 74.0163C19.0453 74.3062 19.1419 74.7505 19.1612 75.8518C19.1805 77.4361 19.0453 77.552 18.3691 76.5473C17.8281 75.7359 17.6542 74.8471 17.9054 74.1516C18.1372 73.5333 18.3304 73.4947 18.7941 74.0163ZM160.047 74.3255C160.124 74.7119 160.066 75.3495 159.95 75.7552C159.719 76.5087 159.081 77.4747 158.907 77.3008C158.849 77.2429 158.772 76.6246 158.752 75.8904C158.714 74.7505 158.772 74.538 159.158 74.1129C159.757 73.4754 159.892 73.4947 160.047 74.3255ZM23.9527 79.8512C23.9914 80.7786 24.1266 81.2616 24.3971 81.5707C24.996 82.2276 26.3871 82.7299 27.9328 82.8459C29.1693 82.9425 29.4398 83.0391 30.3285 83.696L31.3332 84.4495H29.0147C26.4837 84.4495 24.8608 84.1403 23.2379 83.3868C21.9434 82.7686 20.7069 81.4355 20.5136 80.4887C20.3398 79.542 20.7262 78.3442 21.4217 77.6486L21.982 77.0883L22.9287 77.8225C23.8561 78.5567 23.8754 78.5567 23.9527 79.8512ZM156.666 77.8998C158.501 79.8705 156.898 82.7493 153.285 83.9471C152.106 84.3529 148.725 84.662 147.566 84.4881L146.696 84.3529L147.662 83.6573C148.474 83.0584 148.822 82.9425 149.904 82.8652C151.585 82.7299 153.207 81.9958 153.748 81.1263C154.038 80.6626 154.135 80.2183 154.096 79.542C154.058 78.6533 154.116 78.5567 154.811 77.9384C155.217 77.5907 155.681 77.3008 155.835 77.3008C155.99 77.3008 156.357 77.5713 156.666 77.8998ZM23.3151 84.3529C25.1119 85.2223 25.054 85.4155 23.0446 85.4155C21.4217 85.4155 20.8421 85.145 20.3977 84.2563C20.0693 83.5994 19.934 82.4981 20.1659 82.2662C20.2238 82.2083 20.6103 82.4981 21.016 82.8845C21.441 83.2902 22.465 83.9471 23.3151 84.3529ZM157.806 83.0004C157.806 84.0824 157.419 84.8745 156.743 85.1836C156.183 85.4541 153.401 85.4928 153.014 85.2416C152.84 85.145 153.053 84.9904 153.69 84.7393C154.966 84.2563 156.048 83.6187 156.84 82.8265C157.207 82.4594 157.574 82.1696 157.671 82.1503C157.748 82.131 157.806 82.5174 157.806 83.0004Z" fill="black"/>
<path d="M87.7397 52.0932C75.2054 50.934 70.641 45.2827 74.336 23.1848C78.3934 16.2294 86.3632 16.7366 89.1888 16.7366C92.0144 16.7366 98.9763 17.974 102.81 22.2429C105.273 30.2851 105.346 32.7485 104.041 43.0367C103.014 45.7624 102.486 47.5051 100.419 49.5574C98.3515 51.6098 89.7684 52.445 87.7397 52.0932Z" fill="white"/>
<path d="M72.8349 40.5173L72.6629 30.1263C72.518 21.2007 79.6978 13.7787 88.6234 13.6338C97.549 13.4889 104.971 20.6687 105.116 29.5943L105.279 39.99C105.396 46.9106 99.8316 52.6592 92.911 52.7759L85.6188 52.8922C78.7001 53.0021 72.9448 47.436 72.8349 40.5173Z" fill="#3C3C3B"/>
<path d="M89.7229 48.7098C81.8623 48.9501 75.2623 41.8742 74.9833 32.909C74.713 23.9391 80.8629 16.4758 88.7322 16.2309C96.5929 15.9906 103.193 23.0665 103.472 32.0317C103.742 41.0015 97.5923 48.4648 89.7229 48.7098Z" fill="#575756"/>
<path d="M89.934 44.2614C84.868 44.4148 80.5817 38.7351 80.3568 31.564C80.1386 24.3948 84.0683 18.4558 89.1343 18.3024C94.2003 18.1491 98.4866 23.8288 98.7115 30.9999C98.9297 38.1691 94.9999 44.1081 89.934 44.2614Z" fill="#706F6F"/>
</g>
<defs>
<clipPath id="clip0_59_2">
<rect width="178.377" height="91" fill="white"/>
</clipPath>
</defs>
</svg>
