<svg width="178" height="170" viewBox="0 0 178 170" fill="none" xmlns="http://www.w3.org/2000/svg">
<path d="M137.393 64.0614L144.113 88.9814C144.353 89.8814 145.273 90.4114 146.173 90.1714C147.073 89.9314 147.603 89.0014 147.363 88.1114L140.633 63.1814C140.393 62.2914 139.473 61.7614 138.573 62.0014C137.673 62.2414 137.143 63.1614 137.393 64.0614Z" fill="#3C3C3B"/>
<path d="M4.37314 93.0014L8.49313 118.491C8.64313 119.401 9.51313 120.031 10.4231 119.881C11.3431 119.731 11.9631 118.871 11.8131 117.951L7.68314 92.4714C7.54314 91.5514 6.67315 90.9314 5.76315 91.0814C4.84315 91.2214 4.22314 92.0914 4.37314 93.0014Z" fill="#3C3C3B"/>
<path d="M149.163 102.571C152.493 101.761 154.303 99.2714 153.353 96.9314C153.367 96.9314 153.377 96.9314 153.383 96.9314C154.983 89.9314 154.403 85.4314 153.143 78.7414C153.123 78.6147 153.1 78.4881 153.073 78.3614C153.067 78.3147 153.06 78.268 153.053 78.2214C153.047 78.2147 153.043 78.2114 153.043 78.2114C153.003 78.0448 152.963 77.8781 152.923 77.7114C151.453 72.5414 142.953 69.2414 137.723 69.7614C133.793 70.1514 132.863 73.5714 133.613 77.0714C133.523 77.6614 137.023 86.8214 140.583 97.9414C140.583 97.9547 140.583 97.9681 140.583 97.9814C140.583 98.0147 140.583 98.0481 140.583 98.0814C140.583 98.0814 140.587 98.0814 140.593 98.0814C140.54 98.6347 140.643 99.1914 140.903 99.7514C142.043 102.141 145.743 103.401 149.163 102.571Z" fill="#3C3C3B"/>
<path d="M137.533 79.6614L137.223 78.4714L146.593 76.0814L146.893 77.2714L137.533 79.6614Z" fill="white"/>
<path d="M140.863 80.0714L140.553 78.8914L149.923 76.5014L150.223 77.6914L140.863 80.0714Z" fill="white"/>
<path d="M138.133 82.0314L137.833 80.8514L147.203 78.4614L147.503 79.6514L138.133 82.0314Z" fill="white"/>
<path d="M141.463 82.4514L141.163 81.2614L150.533 78.8714L150.833 80.0614L141.463 82.4514Z" fill="white"/>
<path d="M138.743 84.4114L138.433 83.2214L147.803 80.8314L148.103 82.0214L138.743 84.4114Z" fill="white"/>
<path d="M142.073 84.8214L141.773 83.6414L151.133 81.2514L151.443 82.4414L142.073 84.8214Z" fill="white"/>
<path d="M139.343 86.7814L139.043 85.6014L148.413 83.2114L148.713 84.4014L139.343 86.7814Z" fill="white"/>
<path d="M142.673 87.2014L142.373 86.0114L151.743 83.6214L152.043 84.8114L142.673 87.2014Z" fill="white"/>
<path d="M139.953 89.1614L139.653 87.9714L149.013 85.5814L149.323 86.7714L139.953 89.1614Z" fill="white"/>
<path d="M143.283 89.5714L142.983 88.3914L152.343 86.0014L152.653 87.1914L143.283 89.5714Z" fill="white"/>
<path d="M68.7732 69.4014C55.8232 72.6514 55.4832 76.1114 56.6632 80.8014C57.8332 85.4814 61.3232 88.4014 74.2732 85.1514C87.2332 81.9014 103.223 74.2214 102.053 69.5314C100.873 64.8414 81.7332 66.1414 68.7732 69.4014Z" fill="white"/>
<path d="M74.8332 159.371C74.6432 161.731 72.1932 163.571 69.3632 163.491C66.5332 163.401 64.3932 161.431 64.5832 159.071C64.7832 156.721 67.2332 154.881 70.0632 154.961C72.8932 155.041 75.0332 157.021 74.8332 159.371Z" fill="white"/>
<path d="M74.0232 140.421C73.6832 144.611 70.1932 147.911 66.2232 147.791C62.2532 147.681 59.7831 146.161 59.4931 141.991C59.1431 137.081 64.6632 132.491 68.7732 131.941C72.7232 131.421 74.3632 136.231 74.0232 140.421Z" fill="#B2B2B2"/>
<path d="M64.5532 140.501C64.5532 140.501 59.7832 140.981 59.5332 142.471C60.3732 149.111 63.7732 150.401 64.5732 159.261C64.5732 159.261 73.6432 158.331 74.6032 157.811C70.2632 145.911 72.7132 147.451 74.0532 140.021C75.4332 132.451 64.5532 140.501 64.5532 140.501Z" fill="white"/>
<path d="M144.053 111.761C149.593 109.491 156.483 100.731 155.533 94.7114C154.573 88.7014 146.113 84.6414 140.573 86.9014C135.033 89.1714 131.313 95.8814 132.263 101.891C133.213 107.911 138.513 114.021 144.053 111.761Z" fill="#9C000B"/>
<path d="M144.483 142.371C146.963 147.721 154.803 153.461 159.503 151.571C164.203 149.681 166.423 140.381 163.933 135.031C161.453 129.681 155.633 126.881 150.943 128.771C146.243 130.661 141.993 137.021 144.483 142.371Z" fill="white"/>
<path d="M141.803 130.611C153.343 118.201 156.113 104.321 147.983 99.6114C139.853 94.9014 121.773 95.6514 110.233 108.061C98.6931 120.471 98.0732 139.841 106.193 144.551C114.323 149.261 130.263 143.021 141.803 130.611Z" fill="#AB242D"/>
<path d="M14.5932 132.591C11.2432 133.331 8.52318 131.891 8.35318 129.381C8.33985 129.381 8.32982 129.385 8.32315 129.391C3.79315 123.811 2.34317 119.501 0.523166 112.951C0.489832 112.831 0.456462 112.708 0.423129 112.581C0.409796 112.535 0.396484 112.488 0.383151 112.441C0.383151 112.435 0.383151 112.428 0.383151 112.421C0.343151 112.261 0.306499 112.098 0.273166 111.931C-0.686834 106.631 5.49313 99.9314 10.4231 98.1014C14.1231 96.7214 16.4632 99.3714 17.3232 102.851C17.6632 103.341 18.5531 113.111 20.2531 124.661C20.2598 124.675 20.2665 124.685 20.2732 124.691C20.2865 124.725 20.2998 124.755 20.3131 124.781C20.5998 125.261 20.7532 125.808 20.7732 126.421C20.7932 129.071 18.0232 131.831 14.5932 132.591Z" fill="#3C3C3B"/>
<path d="M14.9532 106.901L14.6932 105.701L5.23315 107.681L5.48315 108.881L14.9532 106.901Z" fill="white"/>
<path d="M12.1432 108.741L11.8932 107.541L2.43317 109.521L2.68317 110.721L12.1432 108.741Z" fill="white"/>
<path d="M15.4532 109.301L15.2032 108.101L5.73315 110.081L5.99316 111.281L15.4532 109.301Z" fill="white"/>
<path d="M12.6432 111.141L12.3932 109.941L2.93317 111.921L3.18317 113.121L12.6432 111.141Z" fill="white"/>
<path d="M15.9532 111.701L15.7032 110.501L6.24316 112.481L6.49316 113.681L15.9532 111.701Z" fill="white"/>
<path d="M13.1432 113.541L12.8932 112.341L3.43317 114.321L3.68317 115.521L13.1432 113.541Z" fill="white"/>
<path d="M16.4532 114.101L16.2032 112.901L6.74316 114.881L6.99316 116.081L16.4532 114.101Z" fill="white"/>
<path d="M13.6432 115.941L13.3932 114.741L3.93317 116.721L4.18317 117.921L13.6432 115.941Z" fill="white"/>
<path d="M16.9532 116.501L16.7032 115.301L7.24316 117.281L7.49316 118.481L16.9532 116.501Z" fill="white"/>
<path d="M14.1532 118.341L13.9032 117.141L4.43317 119.121L4.69318 120.321L14.1532 118.341Z" fill="white"/>
<path d="M23.2232 138.591C17.2532 139.001 7.21322 134.161 5.41322 128.341C3.62322 122.521 9.43321 115.151 15.4032 114.741C21.3832 114.331 27.6732 118.721 29.4732 124.541C31.2632 130.371 29.2032 138.181 23.2232 138.591Z" fill="#9C000B"/>
<path d="M33.5432 154.531C17.7132 148.471 9.1232 137.231 14.3432 129.421C19.5732 121.611 36.1332 114.321 51.9632 120.381C67.7832 126.441 76.8732 143.561 71.6532 151.361C66.4332 159.171 49.3632 160.591 33.5432 154.531Z" fill="#297FA9"/>
<path d="M116.163 107.791L123.053 90.8314C125.543 84.7214 132.573 81.7514 138.693 84.2414L155.703 91.1514C161.813 93.6414 164.783 100.671 162.303 106.791L155.403 123.741C152.923 129.861 145.883 132.831 139.773 130.341L122.763 123.431C116.643 120.941 113.673 113.911 116.163 107.791Z" fill="white"/>
<path d="M14.2032 151.681L2.67316 137.471C-1.48684 132.341 -0.706841 124.751 4.42316 120.591L18.6732 109.011C23.8032 104.851 31.3932 105.641 35.5532 110.761L47.0932 124.981C51.2532 130.101 50.4632 137.701 45.3432 141.861L31.0832 153.431C25.9632 157.591 18.3632 156.801 14.2032 151.681Z" fill="white"/>
<path d="M90.5932 169.231C60.0932 170.741 34.4631 153.921 33.3631 131.651C32.2531 109.381 54.0032 104.491 84.5032 102.981C115.013 101.471 142.723 103.901 143.833 126.171C144.933 148.441 121.103 167.711 90.5932 169.231Z" fill="#5EBAE7"/>
<path d="M133.963 124.921C132.693 113.861 111.863 105.731 87.4332 106.781C63.0132 107.821 44.2332 117.631 45.5032 128.691C46.7732 139.761 67.6032 147.881 92.0332 146.841C116.463 145.801 135.233 135.981 133.963 124.921Z" fill="#85D6FF"/>
<path d="M101.303 82.0714C95.6731 80.3214 88.9432 73.3114 90.1932 68.4014C91.4432 63.5014 100.373 60.0614 106.003 61.8214C111.633 63.5714 115.183 68.9714 113.933 73.8714C112.683 78.7814 106.933 83.8314 101.303 82.0714Z" fill="white"/>
<path d="M63.6232 103.161C57.4732 117.731 50.3432 120.871 44.2432 118.381C38.1432 115.891 35.3832 108.721 41.5332 94.1514C47.6932 79.5814 57.6232 69.7914 63.7232 72.2814C69.8332 74.7714 69.7832 88.5914 63.6232 103.161Z" fill="#36A9E1"/>
<path d="M57.6532 121.081C51.9832 131.411 44.8332 131.671 38.4732 127.481C32.1232 123.291 28.9832 116.231 34.6532 105.891C40.3232 95.5514 50.0632 90.5714 56.4232 94.7614C62.7732 98.9614 63.3232 110.741 57.6532 121.081Z" fill="#5EBAE7"/>
<path d="M55.8432 119.111C51.9232 125.861 47.6432 126.391 44.0632 124.091C40.4732 121.801 38.9632 117.551 42.8732 110.801C46.7832 104.051 52.8632 100.441 56.4432 102.741C60.0232 105.041 59.7532 112.371 55.8432 119.111Z" fill="#85D6FF"/>
<path d="M63.7732 123.351L59.3332 109.161C55.5232 96.9714 62.3732 83.8814 74.5632 80.0714C86.7532 76.2614 99.8432 83.1114 103.653 95.3014L108.083 109.501C111.043 118.951 105.733 129.091 96.2832 132.051L86.3232 135.161C76.8732 138.111 66.7232 132.801 63.7732 123.351Z" fill="#3C3C3B"/>
<path d="M90.2632 127.761C79.5732 131.271 67.6532 124.231 63.6432 112.041C59.6432 99.8414 65.0632 87.1114 75.7632 83.5914C86.4532 80.0814 98.3732 87.1214 102.383 99.3114C106.383 111.511 100.963 124.241 90.2632 127.761Z" fill="#575756"/>
<path d="M88.7532 121.571C81.8632 123.831 73.6832 117.771 70.4732 108.021C67.2732 98.2714 70.2632 88.5314 77.1532 86.2714C84.0432 84.0114 92.2232 90.0714 95.4332 99.8214C98.6332 109.571 95.6432 119.311 88.7532 121.571Z" fill="#706F6F"/>
<path d="M79.1632 6.31142C79.1632 6.31142 75.8132 30.5814 83.4332 42.1214C91.0632 53.6514 177.563 166.761 177.563 166.761L174.463 168.321C174.463 168.321 85.1032 54.2814 79.1632 44.3114C69.6132 28.2714 70.3732 3.15143 74.9032 0.511429C79.4332 -2.12857 79.1632 6.31142 79.1632 6.31142Z" fill="#3C3C3B"/>
<path d="M145.473 162.781C147.873 166.041 152.513 166.751 155.773 164.351L171.933 152.461C175.203 150.061 175.903 145.431 173.503 142.171C171.103 138.901 166.473 138.201 163.203 140.601L147.043 152.481C143.783 154.881 143.073 159.521 145.473 162.781Z" fill="white"/>
<path d="M155.233 131.941C148.313 117.721 141.033 114.971 135.073 117.781C129.113 120.591 126.733 127.901 133.653 142.121C140.573 156.341 151.023 165.591 156.983 162.781C162.943 159.971 162.153 146.161 155.233 131.941Z" fill="#36A9E1"/>
<path d="M131.753 108.921C120.133 106.911 115.463 112.351 114.793 119.931C114.113 127.511 117.673 134.371 129.293 136.381C140.913 138.381 150.883 133.861 151.563 126.281C152.233 118.701 143.373 110.931 131.753 108.921Z" fill="#5EBAE7"/>
<path d="M132.153 111.561C124.433 110.421 121.353 113.441 120.913 117.681C120.483 121.911 122.863 125.741 130.573 126.891C138.293 128.031 144.903 125.531 145.333 121.291C145.773 117.061 139.873 112.711 132.153 111.561Z" fill="#85D6FF"/>
<path d="M52.3932 76.1214C51.0232 72.3114 53.0132 68.0714 56.8232 66.6914L96.5132 52.3914C100.323 51.0214 104.563 53.0114 105.943 56.8214C107.313 60.6314 105.323 64.8714 101.503 66.2514L61.8132 80.5514C58.0032 81.9214 53.7632 79.9314 52.3932 76.1214Z" fill="white"/>
</svg>
