<svg width="43" height="64" viewBox="0 0 43 64" fill="none" xmlns="http://www.w3.org/2000/svg">
<g clip-path="url(#clip0_46_2)">
<path d="M6.41274 54.4842C5.2884 54.4842 4.37487 54.9104 3.74242 55.4077C3.74242 54.9104 3.53161 54.6973 3.03971 54.6973H2.82889C2.61808 54.6973 2.47753 54.7683 2.47753 54.9814V60.8774C2.47753 61.2326 2.75862 61.3746 3.10998 61.3746C3.46134 61.3746 3.74242 61.2326 3.74242 60.8774V57.1125C3.74242 56.8284 3.88297 56.5442 4.09378 56.4021C4.58568 56.047 5.2884 55.6918 6.13166 55.6918C7.39655 55.6918 8.02899 56.4021 8.02899 57.6097V60.8774C8.02899 61.2326 8.31008 61.3746 8.66144 61.3746C9.01279 61.3746 9.29388 61.2326 9.29388 60.8774V57.5387C9.22361 55.4787 8.23981 54.4842 6.41274 54.4842ZM0.509928 51.5007C0.0180261 51.5007 -0.333332 51.8559 -0.333332 52.3531C-0.333332 52.8504 0.0180261 53.2056 0.509928 53.2056C1.00183 53.2056 1.35319 52.8504 1.35319 52.3531C1.35319 51.8559 1.00183 51.5007 0.509928 51.5007ZM0.509928 54.6263C0.0882977 54.6263 -0.122517 54.9104 -0.122517 55.3366V60.7353C-0.122517 61.1615 0.158569 61.4457 0.509928 61.4457C0.861286 61.4457 1.14237 61.1615 1.14237 60.7353V55.3366C1.14237 54.9104 0.931557 54.6263 0.509928 54.6263ZM21.8725 54.4842C19.7644 54.4842 18.1481 55.9759 18.1481 58.036C18.1481 60.096 19.7644 61.5877 21.8725 61.5877C23.9807 61.5877 25.5969 60.096 25.5969 58.036C25.5969 55.9759 23.9807 54.4842 21.8725 54.4842ZM21.8725 60.3801C20.3968 60.3801 19.3427 59.3856 19.3427 58.036C19.3427 56.6153 20.3265 55.6208 21.8725 55.6208C23.3482 55.6208 24.332 56.6153 24.332 58.036C24.332 59.3856 23.3482 60.3801 21.8725 60.3801ZM14.3534 54.4842C13.2291 54.4842 12.3156 54.9104 11.6831 55.4077C11.6831 54.9104 11.4723 54.6973 10.9804 54.6973H10.7696C10.5588 54.6973 10.4885 54.7683 10.4885 54.9814V60.8774C10.4885 61.2326 10.7696 61.3746 11.1209 61.3746C11.4723 61.3746 11.7534 61.2326 11.7534 60.8774V57.1125C11.7534 56.8284 11.8939 56.5442 12.1047 56.4021C12.5966 56.047 13.2994 55.6918 14.1426 55.6918C15.4075 55.6918 16.04 56.4021 16.04 57.6097V60.8774C16.04 61.2326 16.321 61.3746 16.6724 61.3746C17.0238 61.3746 17.3048 61.2326 17.3048 60.8774V57.5387C17.1643 55.4787 16.1805 54.4842 14.3534 54.4842ZM41.2675 54.6973C40.7756 54.6973 40.4945 54.8394 40.3539 55.1945L38.2458 59.8829L36.0674 55.1945C35.9268 54.8394 35.5052 54.6973 35.0836 54.6973C34.6619 54.6973 34.4511 54.9104 34.5917 55.1945L37.4025 61.0195C37.4728 61.1615 37.4728 61.3036 37.4025 61.4457C37.0512 62.085 36.6295 62.6533 35.9971 62.6533C35.716 62.6533 35.5052 62.5112 35.3647 62.4402C35.2944 62.3691 35.2241 62.2981 35.0836 62.2981C34.8728 62.2981 34.5214 62.5822 34.5214 63.0084C34.5214 63.3636 35.0836 63.8609 35.9971 63.8609C37.4025 63.8609 38.1755 62.5822 38.8782 61.1615L41.7594 55.1945C41.8999 54.9104 41.7594 54.6973 41.2675 54.6973ZM33.116 54.6973H32.9754C32.6943 54.6973 32.343 54.8394 32.2727 55.3366C31.7105 54.8394 30.8673 54.4842 30.024 54.4842C27.9861 54.4842 26.5807 56.047 26.5807 57.9649C26.5807 59.8118 27.9861 61.3036 30.024 61.3036C30.8673 61.3036 31.6403 61.0195 32.2727 60.5222C32.2727 61.8008 31.6403 62.7243 30.024 62.7243C28.9699 62.7243 28.2672 62.2271 27.9861 61.9429C27.9159 61.8719 27.8456 61.8008 27.705 61.8008C27.4942 61.8008 27.1429 62.085 27.1429 62.5822C27.1429 63.1505 28.4078 63.8609 29.9537 63.8609C32.4132 63.8609 33.4673 62.4402 33.4673 60.025V54.9814C33.4673 54.7683 33.3268 54.6973 33.116 54.6973ZM32.2024 58.8884C32.2024 59.1015 32.1322 59.3146 31.9213 59.5277C31.4997 59.9539 30.7267 60.2381 30.0943 60.2381C28.6889 60.2381 27.7753 59.3146 27.7753 57.9649C27.7753 56.6153 28.6889 55.6208 30.0943 55.6208C30.797 55.6208 31.57 55.9049 31.9916 56.4021C32.1322 56.6153 32.2024 56.7573 32.2024 56.9704V58.8884Z" fill="black"/>
<path d="M24.332 13.9229C25.105 13.6388 25.5266 13.5678 25.7374 13.6388C25.8077 13.6388 25.8077 13.6388 25.878 13.7098V13.8519C25.8077 14.2781 25.3158 15.5568 22.3644 18.2561L21.8022 18.7534C22.3644 18.8954 22.8563 19.1085 23.2779 19.3927L23.3482 19.3216C27.2834 15.6278 27.3537 14.2071 27.3537 13.7098C27.3537 13.2126 27.2131 12.7864 26.8618 12.5022C25.878 11.5077 23.9104 12.3602 20.7482 13.7809C19.5535 14.3492 18.2886 14.9174 17.3048 15.2016C15.9697 15.6278 15.7589 15.4147 15.6886 15.4147C15.4778 15.2726 15.6886 14.7043 16.1102 13.9229C16.6724 12.9995 17.5157 11.8629 18.4995 10.7974L18.9914 10.2291C18.4995 10.016 18.0778 9.80289 17.6562 9.51875L17.3048 9.94496C15.4075 12.2181 13.0183 15.1305 14.7048 16.6223C15.8994 17.6878 18.4292 16.5513 21.3103 15.2726C22.4347 14.7043 23.4887 14.2781 24.332 13.9229Z" fill="#FFD700"/>
<path d="M20.7482 45.2496C18.2184 45.2496 16.1102 43.1895 16.1102 40.5612V23.2996C16.1102 20.7423 18.1481 18.6113 20.7482 18.6113C23.3482 18.6113 25.3861 20.6713 25.3861 23.2996V40.6323C25.3861 43.1896 23.2779 45.2496 20.7482 45.2496ZM20.7482 19.961C18.9211 19.961 17.4454 21.4527 17.4454 23.2996V40.6323C17.4454 42.4792 18.9211 43.9709 20.7482 43.9709C22.5752 43.9709 24.0509 42.4792 24.0509 40.6323V23.2996C24.0509 21.4527 22.5752 19.961 20.7482 19.961ZM20.7482 10.6553C17.867 10.6553 15.4778 8.24011 15.4778 5.32766C15.4778 2.4152 17.867 -1.90735e-06 20.7482 -1.90735e-06C23.6293 -1.90735e-06 26.0185 2.4152 26.0185 5.32766C26.0185 8.24011 23.6293 10.6553 20.7482 10.6553ZM20.7482 1.34967C18.5697 1.34967 16.8129 3.12556 16.8129 5.32766C16.8129 7.52976 18.5697 9.30564 20.7482 9.30564C22.9266 9.30564 24.6834 7.52976 24.6834 5.32766C24.6834 3.12556 22.9266 1.34967 20.7482 1.34967Z" fill="black"/>
</g>
<defs>
<clipPath id="clip0_46_2">
<rect width="42.6667" height="64" fill="white"/>
</clipPath>
</defs>
</svg>
